# xmcd
#
# Track frame offsets:
#	150
#	21799
#	36844
#	46344
#	65903
#	77731
#	97931
#	116683
#	138458
#	150313
#	169065
#
# Disc length: 2521 seconds
#
# Revision: 1
# Processed by: cddbd v1.5.1PL0 Copyright (c) Steve Scherf et al.
# Submitted via: EasyCDDAExtractor 7.1.1.1
#
DISCID=8909d70b
DTITLE=Garth Brooks - The Chase
DYEAR=1900
DGENRE=Country
TTITLE0=We Shall Be Free
TTITLE1=Somewhere Other Than The Night
TTITLE2=Mr.Right
TTITLE3=Every Now And Then
TTITLE4=Walking After Midnight
TTITLE5=Dixie Chicken
TTITLE6=Learning to Live Agian
TTITLE7=That Summer
TTITLE8=Something With a Ring To It
TTITLE9=Night Riders Lament
TTITLE10=Face To Face
EXTD=
EXTT0=
EXTT1=
EXTT2=
EXTT3=
EXTT4=
EXTT5=
EXTT6=
EXTT7=
EXTT8=
EXTT9=
EXTT10=
PLAYORDER=
